<svg id="Шар_1" data-name="Шар 1" xmlns="http://www.w3.org/2000/svg" viewBox="0 0 1080 1080"><defs><style>.cls-1{fill-opacity:0;}.cls-2{fill:#000;}</style></defs><rect class="cls-1" width="32" height="32"/><path class="cls-2" d="M419.78,546.13a1.27,1.27,0,0,1-.9-2.16l83.85-84.21a1.27,1.27,0,0,1,1.79,0,1.26,1.26,0,0,1,0,1.79l-83.85,84.21A1.23,1.23,0,0,1,419.78,546.13Z"/><path class="cls-2" d="M462.13,558a1.19,1.19,0,0,1-.63-.17,1.27,1.27,0,0,1-.47-1.73l43.55-75.39a1.27,1.27,0,1,1,2.19,1.27l-43.54,75.39A1.28,1.28,0,0,1,462.13,558Z"/><path class="cls-2" d="M495.7,588.9a1.22,1.22,0,0,1-.32,0,1.28,1.28,0,0,1-.91-1.54l1.92-7.46a1.27,1.27,0,1,1,2.46.63L496.93,588A1.27,1.27,0,0,1,495.7,588.9Z"/><path class="cls-2" d="M499.09,575.73a1.73,1.73,0,0,1-.32,0,1.28,1.28,0,0,1-.91-1.55L501.5,560a1.27,1.27,0,1,1,2.46.64l-3.64,14.14A1.28,1.28,0,0,1,499.09,575.73Z"/><path class="cls-2" d="M504.48,554.81a1.66,1.66,0,0,1-.32,0,1.27,1.27,0,0,1-.91-1.55l3.35-13a1.27,1.27,0,0,1,2.46.63l-3.36,13A1.26,1.26,0,0,1,504.48,554.81Z"/><path class="cls-2" d="M509.83,534a1.1,1.1,0,0,1-.31,0,1.27,1.27,0,0,1-.92-1.54l4.7-18.23a1.26,1.26,0,0,1,2.45.63l-4.69,18.23A1.27,1.27,0,0,1,509.83,534Z"/><path class="cls-2" d="M515.8,510.84a1.12,1.12,0,0,1-.32,0,1.27,1.27,0,0,1-.91-1.55l1.59-6.21a1.29,1.29,0,0,1,1.55-.91,1.27,1.27,0,0,1,.91,1.55l-1.6,6.21A1.26,1.26,0,0,1,515.8,510.84Z"/><path class="cls-2" d="M539.05,606.15a1.26,1.26,0,0,1-1.27-1.26V486.06a1.27,1.27,0,0,1,2.54,0V604.89A1.26,1.26,0,0,1,539.05,606.15Z"/><path class="cls-2" d="M407.85,504.1a1.27,1.27,0,0,1-.64-2.36l5.16-3.05a1.27,1.27,0,1,1,1.29,2.18l-5.16,3.06A1.29,1.29,0,0,1,407.85,504.1Z"/><path class="cls-2" d="M417,498.66a1.27,1.27,0,0,1-.64-2.36L427.14,490a1.27,1.27,0,1,1,1.29,2.18l-10.74,6.36A1.26,1.26,0,0,1,417,498.66Z"/><path class="cls-2" d="M432.52,489.51a1.27,1.27,0,0,1-.65-2.36l9.33-5.52a1.27,1.27,0,0,1,1.29,2.18l-9.33,5.52A1.24,1.24,0,0,1,432.52,489.51Z"/><path class="cls-2" d="M448.11,480.28a1.27,1.27,0,0,1-.65-2.36l23.76-14.06a1.28,1.28,0,0,1,1.74.45,1.26,1.26,0,0,1-.45,1.74l-23.76,14.06A1.23,1.23,0,0,1,448.11,480.28Z"/><path class="cls-2" d="M475.75,463.93a1.27,1.27,0,0,1-.65-2.36l7-4.16a1.26,1.26,0,0,1,1.73.44,1.27,1.27,0,0,1-.44,1.74l-7,4.16A1.24,1.24,0,0,1,475.75,463.93Z"/><path class="cls-2" d="M377.56,468.64a1.26,1.26,0,0,1-.32-2.49l84.28-21.86a1.27,1.27,0,1,1,.64,2.45L377.88,468.6A1.22,1.22,0,0,1,377.56,468.64Z"/><path class="cls-2" d="M477.26,425.53H358.43a1.27,1.27,0,1,1,0-2.53H477.26a1.27,1.27,0,1,1,0,2.53Z"/><path class="cls-2" d="M461.84,405.52a1.87,1.87,0,0,1-.32,0l-20.58-5.34a1.26,1.26,0,1,1,.63-2.45L462.16,403a1.27,1.27,0,0,1-.32,2.5Z"/><path class="cls-2" d="M435.6,398.72a1.87,1.87,0,0,1-.32,0l-3.95-1a1.27,1.27,0,0,1,.64-2.45l3.95,1a1.27,1.27,0,0,1-.32,2.5Z"/><path class="cls-2" d="M424.73,395.9a1.22,1.22,0,0,1-.32,0L393,387.72a1.27,1.27,0,1,1,.64-2.45l31.38,8.13a1.27,1.27,0,0,1-.32,2.5Z"/><path class="cls-2" d="M387.25,386.18a1.22,1.22,0,0,1-.32,0l-9.68-2.51a1.26,1.26,0,1,1,.63-2.45l9.69,2.51a1.26,1.26,0,0,1-.32,2.49Z"/><path class="cls-2" d="M484.06,395.27a1.3,1.3,0,0,1-.65-.18l-74.93-44.33a1.27,1.27,0,0,1,1.29-2.18l74.93,44.33a1.25,1.25,0,0,1,.45,1.73A1.28,1.28,0,0,1,484.06,395.27Z"/><path class="cls-2" d="M501.14,391.45a1.27,1.27,0,0,1-.9-.38l-83.84-84.2a1.27,1.27,0,1,1,1.79-1.79L502,389.28a1.28,1.28,0,0,1,0,1.8A1.29,1.29,0,0,1,501.14,391.45Z"/><path class="cls-2" d="M507,372.44a1.3,1.3,0,0,1-1.1-.63l-5-8.7a1.27,1.27,0,0,1,2.2-1.27l5,8.7a1.27,1.27,0,0,1-.46,1.73A1.23,1.23,0,0,1,507,372.44Z"/><path class="cls-2" d="M499.22,359.05a1.28,1.28,0,0,1-1.1-.63l-9.86-17.07a1.27,1.27,0,0,1,2.2-1.27l9.86,17.07a1.27,1.27,0,0,1-.47,1.73A1.19,1.19,0,0,1,499.22,359.05Z"/><path class="cls-2" d="M486.75,337.45a1.25,1.25,0,0,1-1.1-.63l-3.79-6.56a1.27,1.27,0,0,1,2.2-1.27l3.79,6.56a1.26,1.26,0,0,1-.47,1.73A1.22,1.22,0,0,1,486.75,337.45Z"/><path class="cls-2" d="M480.4,326.46a1.26,1.26,0,0,1-1.1-.64l-7.48-12.94a1.27,1.27,0,0,1,2.2-1.27l7.47,12.94a1.27,1.27,0,0,1-.46,1.74A1.32,1.32,0,0,1,480.4,326.46Z"/><path class="cls-2" d="M470.56,309.43a1.3,1.3,0,0,1-1.1-.63l-1.86-3.24a1.26,1.26,0,1,1,2.19-1.26l1.87,3.23a1.27,1.27,0,0,1-.46,1.73A1.23,1.23,0,0,1,470.56,309.43Z"/><path class="cls-2" d="M465.78,301.15a1.28,1.28,0,0,1-1.1-.63l-2.37-4.11a1.27,1.27,0,0,1,2.2-1.26l2.37,4.1a1.26,1.26,0,0,1-.47,1.73A1.19,1.19,0,0,1,465.78,301.15Z"/><path class="cls-2" d="M517.08,346.71a1.27,1.27,0,0,1-1.22-.95l-22.1-84.21a1.27,1.27,0,0,1,2.45-.65l22.1,84.22a1.29,1.29,0,0,1-1.23,1.59Z"/><path class="cls-2" d="M660.22,546.13a1.23,1.23,0,0,1-.89-.37l-83.85-84.21a1.27,1.27,0,1,1,1.79-1.79L661.12,544a1.27,1.27,0,0,1-.9,2.16Z"/><path class="cls-2" d="M617.87,558a1.27,1.27,0,0,1-1.1-.63L573.23,482a1.27,1.27,0,1,1,2.19-1.27L619,556.09a1.27,1.27,0,0,1-.47,1.73A1.22,1.22,0,0,1,617.87,558Z"/><path class="cls-2" d="M584.3,588.9a1.27,1.27,0,0,1-1.23-.95l-1.92-7.46a1.27,1.27,0,1,1,2.46-.63l1.92,7.46a1.28,1.28,0,0,1-.91,1.54A1.22,1.22,0,0,1,584.3,588.9Z"/><path class="cls-2" d="M580.91,575.73a1.28,1.28,0,0,1-1.23-1L576,560.64a1.27,1.27,0,0,1,2.46-.64l3.64,14.15a1.28,1.28,0,0,1-.91,1.55A1.73,1.73,0,0,1,580.91,575.73Z"/><path class="cls-2" d="M575.52,554.81a1.26,1.26,0,0,1-1.22-.95l-3.36-13a1.27,1.27,0,0,1,2.46-.63l3.35,13a1.27,1.27,0,0,1-.91,1.55A1.66,1.66,0,0,1,575.52,554.81Z"/><path class="cls-2" d="M570.17,534a1.27,1.27,0,0,1-1.23-1l-4.69-18.23a1.26,1.26,0,1,1,2.45-.63l4.7,18.23a1.27,1.27,0,0,1-.92,1.54A1.1,1.1,0,0,1,570.17,534Z"/><path class="cls-2" d="M564.2,510.84a1.26,1.26,0,0,1-1.22-.95l-1.6-6.21a1.27,1.27,0,0,1,.91-1.55,1.29,1.29,0,0,1,1.55.91l1.59,6.21a1.27,1.27,0,0,1-.91,1.55A1.12,1.12,0,0,1,564.2,510.84Z"/><path class="cls-2" d="M672.15,504.1a1.29,1.29,0,0,1-.65-.17l-5.16-3.06a1.27,1.27,0,1,1,1.29-2.18l5.16,3.05a1.27,1.27,0,0,1-.64,2.36Z"/><path class="cls-2" d="M663,498.66a1.26,1.26,0,0,1-.65-.17l-10.74-6.36a1.27,1.27,0,1,1,1.29-2.18l10.74,6.35a1.27,1.27,0,0,1-.64,2.36Z"/><path class="cls-2" d="M647.48,489.51a1.24,1.24,0,0,1-.64-.18l-9.33-5.52a1.27,1.27,0,0,1,1.29-2.18l9.33,5.52a1.27,1.27,0,0,1-.65,2.36Z"/><path class="cls-2" d="M631.89,480.28a1.23,1.23,0,0,1-.64-.17l-23.76-14.06a1.26,1.26,0,0,1-.45-1.74,1.28,1.28,0,0,1,1.74-.45l23.76,14.06a1.27,1.27,0,0,1,.44,1.74A1.25,1.25,0,0,1,631.89,480.28Z"/><path class="cls-2" d="M604.25,463.93a1.24,1.24,0,0,1-.64-.18l-7-4.16a1.27,1.27,0,0,1,1.29-2.18l7,4.16a1.27,1.27,0,0,1-.65,2.36Z"/><path class="cls-2" d="M702.44,468.65a1.25,1.25,0,0,1-.32,0l-84.28-21.86a1.27,1.27,0,1,1,.64-2.45l84.28,21.86a1.27,1.27,0,0,1-.32,2.5Z"/><path class="cls-2" d="M721.57,425.53H602.74a1.27,1.27,0,1,1,0-2.53H721.57a1.27,1.27,0,1,1,0,2.53Z"/><path class="cls-2" d="M618.16,405.52a1.27,1.27,0,0,1-.32-2.5l20.59-5.33a1.26,1.26,0,1,1,.63,2.45l-20.58,5.34A1.87,1.87,0,0,1,618.16,405.52Z"/><path class="cls-2" d="M644.4,398.72a1.27,1.27,0,0,1-.32-2.5l3.95-1a1.27,1.27,0,0,1,.64,2.45l-3.95,1A1.87,1.87,0,0,1,644.4,398.72Z"/><path class="cls-2" d="M655.27,395.9a1.27,1.27,0,0,1-.32-2.5l31.38-8.13a1.27,1.27,0,1,1,.64,2.45l-31.38,8.14A1.22,1.22,0,0,1,655.27,395.9Z"/><path class="cls-2" d="M692.75,386.18a1.26,1.26,0,0,1-.32-2.49l9.69-2.51a1.26,1.26,0,1,1,.63,2.45l-9.68,2.51A1.22,1.22,0,0,1,692.75,386.18Z"/><path class="cls-2" d="M595.94,395.27a1.28,1.28,0,0,1-1.09-.63,1.25,1.25,0,0,1,.45-1.73l74.93-44.33a1.27,1.27,0,0,1,1.29,2.18l-74.93,44.33A1.3,1.3,0,0,1,595.94,395.27Z"/><path class="cls-2" d="M578.86,391.45a1.29,1.29,0,0,1-.89-.37,1.28,1.28,0,0,1,0-1.8l83.85-84.2a1.27,1.27,0,1,1,1.79,1.79l-83.84,84.2A1.27,1.27,0,0,1,578.86,391.45Z"/><path class="cls-2" d="M573.05,372.44a1.23,1.23,0,0,1-.64-.17,1.27,1.27,0,0,1-.46-1.73l5-8.7a1.27,1.27,0,0,1,2.2,1.27l-5,8.7A1.3,1.3,0,0,1,573.05,372.44Z"/><path class="cls-2" d="M580.78,359.05a1.19,1.19,0,0,1-.63-.17,1.27,1.27,0,0,1-.47-1.73l9.86-17.07a1.27,1.27,0,0,1,2.2,1.27l-9.86,17.07A1.28,1.28,0,0,1,580.78,359.05Z"/><path class="cls-2" d="M593.25,337.45a1.22,1.22,0,0,1-.63-.17,1.26,1.26,0,0,1-.47-1.73l3.79-6.56a1.27,1.27,0,0,1,2.2,1.27l-3.79,6.56A1.25,1.25,0,0,1,593.25,337.45Z"/><path class="cls-2" d="M599.6,326.46a1.32,1.32,0,0,1-.63-.17,1.27,1.27,0,0,1-.46-1.74L606,311.61a1.27,1.27,0,0,1,2.2,1.27l-7.48,12.94A1.26,1.26,0,0,1,599.6,326.46Z"/><path class="cls-2" d="M609.44,309.43a1.23,1.23,0,0,1-.64-.17,1.27,1.27,0,0,1-.46-1.73l1.87-3.23a1.26,1.26,0,1,1,2.19,1.26l-1.86,3.24A1.3,1.3,0,0,1,609.44,309.43Z"/><path class="cls-2" d="M614.22,301.15a1.23,1.23,0,0,1-.64-.17,1.27,1.27,0,0,1-.46-1.73l2.37-4.1a1.27,1.27,0,1,1,2.2,1.26l-2.37,4.11A1.28,1.28,0,0,1,614.22,301.15Z"/><path class="cls-2" d="M562.92,346.71a1.29,1.29,0,0,1-1.23-1.59l22.1-84.22a1.27,1.27,0,0,1,2.45.65l-22.1,84.21A1.27,1.27,0,0,1,562.92,346.71Z"/><path class="cls-2" d="M539.05,363.74a1.27,1.27,0,0,1-1.27-1.27V346.72a1.27,1.27,0,0,1,2.54,0v15.75A1.27,1.27,0,0,1,539.05,363.74Z"/><path class="cls-2" d="M539.05,342.2a1.27,1.27,0,0,1-1.27-1.27V294a1.27,1.27,0,1,1,2.54,0v46.91A1.27,1.27,0,0,1,539.05,342.2Z"/><path class="cls-2" d="M539.05,290.29a1.27,1.27,0,0,1-1.27-1.27v-8.41a1.27,1.27,0,0,1,2.54,0V289A1.27,1.27,0,0,1,539.05,290.29Z"/><path class="cls-2" d="M539.05,275.34a1.27,1.27,0,0,1-1.27-1.27V265.9a1.27,1.27,0,1,1,2.54,0v8.17A1.27,1.27,0,0,1,539.05,275.34Z"/><path class="cls-2" d="M539.05,253.38a1.26,1.26,0,0,1-1.27-1.26v-8.48a1.27,1.27,0,1,1,2.54,0v8.48A1.26,1.26,0,0,1,539.05,253.38Z"/><path class="cls-2" d="M569.76,412.8h-24V385.87a5.71,5.71,0,0,0-11.42,0V412.8h-24a5.71,5.71,0,0,0,0,11.41h24v38.45a5.71,5.71,0,1,0,11.42,0V424.21h24a5.71,5.71,0,0,0,0-11.41Z"/><path class="cls-2" d="M325.86,649.14h1.95a59.5,59.5,0,0,1,25.12,5.51,53.58,53.58,0,0,1,19.79,15.26l-9.05,8.17a44.17,44.17,0,0,0-16.16-11.72,48.85,48.85,0,0,0-19.7-4.26h-1.95a36.58,36.58,0,0,0-20,5.68q-9,5.69-9,16a14,14,0,0,0,6.48,12.34q6.48,4.35,20.15,6.12L337,704q19.71,2.49,29.82,10.74T377,739.32q0,16.33-13.22,26.37t-32.58,10.2h-1.06q-17.94,0-31-7.36t-19.08-19.62l9.05-8.34q4.44,9.95,15.09,16.15t25.92,6.21h1.06q13.67,0,22.81-6.39t9.15-17.22q0-10.11-6.93-15.35t-20.77-7.19L322,715.18q-19.35-2.49-29.11-9.94t-9.77-21.13q0-15.61,12.52-25.2T325.86,649.14Z"/><path class="cls-2" d="M421.18,741.63l-13.49,33H392.43l51.48-124.27h7.81L503,774.65H487.76l-13.5-33ZM447.81,676l-21.65,52.72h43.31Z"/><path class="cls-2" d="M562.32,774.65h-7.64L502.49,650.38h15.27l40.65,98.53,40.48-98.53h15.26Z"/><path class="cls-2" d="M635.14,774.65V651.41h12.32V774.65Z"/><path class="cls-2" d="M691.83,667.69q18.46-18.54,44.74-18.55a63.38,63.38,0,1,1,0,126.75q-26.28,0-44.74-18.55t-18.46-44.82Q673.37,686.24,691.83,667.69Zm79.89,8.88q-14.38-14.46-35.15-14.47t-35.06,14.47Q687.22,691,687.22,712.52t14.29,36q14.28,14.46,35.06,14.46t35.15-14.46q14.37-14.47,14.38-36T771.72,676.57Z"/><rect class="cls-2" x="689.94" y="819.57" width="110" height="1.25"/><rect class="cls-2" x="280.06" y="819.57" width="110" height="1.25"/><path class="cls-2" d="M444,832.11a18.3,18.3,0,1,1,5-12.51A17.12,17.12,0,0,1,444,832.11Zm-12.61,2.55a15.61,15.61,0,0,0,7.77-1.94,14,14,0,0,0,5.4-5.42,16.41,16.41,0,0,0,0-15.48,14.13,14.13,0,0,0-5.4-5.42,15.42,15.42,0,0,0-7.77-2,15.12,15.12,0,1,0,0,30.23Z"/><path class="cls-2" d="M482,836.56l-8.51-14.29h-9.57v14.29h-2.43v-34H474a10.67,10.67,0,0,1,7.56,2.79,9.9,9.9,0,0,1,.65,13.46,10.06,10.06,0,0,1-6.12,3.28l8.65,14.49Zm-18.08-31.69v15.07h10a8.38,8.38,0,0,0,5.93-2.12,7.5,7.5,0,0,0,0-10.81,8.34,8.34,0,0,0-5.91-2.14Z"/><path class="cls-2" d="M521.41,836.56l-3.94-9.29h-18l-3.93,9.29h-2.63l14.29-34h2.24l14.62,34Zm-13-30.57-8,19H516.5Z"/><path class="cls-2" d="M552.08,802.54v2.33H541.19v31.69h-2.43V804.87H527.92v-2.33Z"/><path class="cls-2" d="M589.13,832.11a18.3,18.3,0,1,1,5-12.51A17.11,17.11,0,0,1,589.13,832.11Zm-12.61,2.55a15.62,15.62,0,0,0,7.78-1.94,13.9,13.9,0,0,0,5.39-5.42,16.34,16.34,0,0,0,0-15.48,14,14,0,0,0-5.39-5.42,15.43,15.43,0,0,0-7.78-2,15.12,15.12,0,1,0,0,30.23Z"/><path class="cls-2" d="M627.11,836.56l-8.5-14.29H609v14.29H606.6v-34h12.54a10.64,10.64,0,0,1,7.56,2.79,9.89,9.89,0,0,1,.66,13.46,10.08,10.08,0,0,1-6.13,3.28l8.65,14.49ZM609,804.87v15.07h10a8.4,8.4,0,0,0,5.93-2.12,7.51,7.51,0,0,0,0-10.81,8.33,8.33,0,0,0-5.9-2.14Z"/><path class="cls-2" d="M666.23,802.54l-12.92,20.55v13.47h-2.48V823.09L638,802.54h2.72l11.37,18.22,11.47-18.22Z"/></svg>